<svg width="26" height="26" viewBox="0 0 26 26" fill="none" xmlns="http://www.w3.org/2000/svg">
<g clip-path="url(#clip0_79_26)">
<path d="M14.8001 3C14.2725 3.00751 13.7693 3.22317 13.4001 3.6L3.40008 13.6C3.03363 13.9739 2.82837 14.4765 2.82837 15C2.82837 15.5235 3.03363 16.0261 3.40008 16.4L11.6001 24.6C12.4001 25.4 13.6001 25.4 14.4001 24.6L24.4001 14.6C24.8001 14.2 25.0001 13.7 25.0001 13.2V5C25.0001 4.46957 24.7894 3.96086 24.4143 3.58579C24.0392 3.21071 23.5305 3 23.0001 3H14.8001ZM20.0001 10C19.4697 10 18.9609 9.78929 18.5859 9.41421C18.2108 9.03914 18.0001 8.53043 18.0001 8C18.0001 7.46957 18.2108 6.96086 18.5859 6.58579C18.9609 6.21071 19.4697 6 20.0001 6C20.5305 6 21.0392 6.21071 21.4143 6.58579C21.7894 6.96086 22.0001 7.46957 22.0001 8C22.0001 8.53043 21.7894 9.03914 21.4143 9.41421C21.0392 9.78929 20.5305 10 20.0001 10Z" fill="#4295F7"/>
<path opacity="0.5" d="M13 0C12.4725 0.0075141 11.9693 0.223172 11.6 0.6L1.60003 10.6C1.23358 10.9739 1.02832 11.4765 1.02832 12C1.02832 12.5235 1.23358 13.0261 1.60003 13.4C1.70003 13.2 1.90003 12.8 2.20003 12.6L12.2 2.6C12.5693 2.22317 13.0725 2.00751 13.6 2H23.2C23.2 1.46957 22.9893 0.960859 22.6142 0.585786C22.2392 0.210714 21.7305 0 21.2 0L13 0Z" fill="#4295F7"/>
</g>
<defs>
<clipPath id="clip0_79_26">
<rect width="26" height="26" fill="white"/>
</clipPath>
</defs>
</svg>
